<?xml version="1.0" standalone="no"?>
<!DOCTYPE svg PUBLIC "-//W3C//DTD SVG 20010904//EN"
 "http://www.w3.org/TR/2001/REC-SVG-20010904/DTD/svg10.dtd">
<svg version="1.0" xmlns="http://www.w3.org/2000/svg"
 width="202.000000pt" height="187.000000pt" viewBox="0 0 202.000000 187.000000"
 preserveAspectRatio="xMidYMid meet">

<g transform="translate(0.000000,187.000000) scale(0.100000,-0.100000)"
fill="#000000" stroke="none">
<path d="M0 935 l0 -935 1010 0 1010 0 0 935 0 935 -1010 0 -1010 0 0 -935z
m781 270 c90 -41 171 -75 180 -75 10 0 57 19 106 41 177 83 236 109 244 109 5
0 9 -64 9 -143 l0 -143 -57 -42 -58 -43 -3 91 c-2 60 -7 90 -14 90 -7 0 -60
-23 -118 -50 l-107 -50 -109 50 c-60 27 -114 50 -121 50 -9 0 -13 -28 -15 -90
l-3 -91 -57 43 -58 42 0 143 c0 81 4 143 9 143 5 0 83 -34 172 -75z m-1 -430
c91 -68 171 -125 179 -125 8 0 85 54 173 120 87 67 165 123 173 126 12 5 15
-6 15 -64 l0 -71 -117 -87 c-65 -48 -144 -107 -176 -131 -31 -24 -63 -43 -69
-43 -6 0 -90 59 -185 131 l-173 130 0 70 c0 38 3 69 8 69 4 0 81 -56 172 -125z"/>
</g>
</svg>